<svg width="468" height="69" viewBox="0 0 468 69" fill="none" xmlns="http://www.w3.org/2000/svg">
<path d="M64.125 67.5938H46.5938V42.375C46.5938 40.4375 46.3906 39.0938 45.9844 38.3438C45.5781 37.5938 44.8438 37.2188 43.7812 37.2188C41.8125 37.2188 40.8281 38.9531 40.8281 42.4219V67.5938H23.2969V42.375C23.2969 40.4375 23.0781 39.0938 22.6406 38.3438C22.2344 37.5938 21.5 37.2188 20.4375 37.2188C18.5 37.2188 17.5312 38.9531 17.5312 42.4219V67.5938H0V38.8125C0 33.5625 1.76563 29.1094 5.29688 25.4531C8.82812 21.7656 13.1094 19.9219 18.1406 19.9219C23.3281 19.9219 27.9844 22.1094 32.1094 26.4844C36.7031 22.1094 41.2969 19.9219 45.8906 19.9219C51.7344 19.9219 56.4219 22.0469 59.9531 26.2969C62.7344 29.6094 64.125 34.4375 64.125 40.7812V67.5938ZM91.9688 20.8594V67.5938H74.4375V20.8594H91.9688ZM83.25 0C85.625 0 87.6719 0.84375 89.3906 2.53125C91.1406 4.1875 92.0156 6.15625 92.0156 8.4375C92.0156 10.875 91.1875 12.875 89.5312 14.4375C87.9062 16 85.8125 16.7812 83.25 16.7812C80.6875 16.7812 78.5781 16 76.9219 14.4375C75.2969 12.875 74.4844 10.875 74.4844 8.4375C74.4844 6.15625 75.3438 4.1875 77.0625 2.53125C78.8125 0.84375 80.875 0 83.25 0ZM131.062 3.60938H148.594V42.5625C148.594 49.7188 146.719 55.5469 142.969 60.0469C140.812 62.6406 138.062 64.7031 134.719 66.2344C131.406 67.7656 128 68.5312 124.5 68.5312C117.531 68.5312 111.656 66.1875 106.875 61.5C102.094 56.8125 99.7031 51.0625 99.7031 44.25C99.7031 37.6562 102.078 31.9531 106.828 27.1406C111.578 22.3281 117.203 19.9219 123.703 19.9219C124.734 19.9219 126.297 20.0156 128.391 20.2031V39.5156C126.953 38.3906 125.516 37.8281 124.078 37.8281C122.266 37.8281 120.703 38.5 119.391 39.8438C118.109 41.1562 117.469 42.75 117.469 44.625C117.469 46.4375 118.141 48 119.484 49.3125C120.828 50.5938 122.438 51.2344 124.312 51.2344C128.812 51.2344 131.062 48.125 131.062 41.9062V3.60938ZM186.656 3.60938H204.188V42.5625C204.188 49.7188 202.312 55.5469 198.562 60.0469C196.406 62.6406 193.656 64.7031 190.312 66.2344C187 67.7656 183.594 68.5312 180.094 68.5312C173.125 68.5312 167.25 66.1875 162.469 61.5C157.688 56.8125 155.297 51.0625 155.297 44.25C155.297 37.6562 157.672 31.9531 162.422 27.1406C167.172 22.3281 172.797 19.9219 179.297 19.9219C180.328 19.9219 181.891 20.0156 183.984 20.2031V39.5156C182.547 38.3906 181.109 37.8281 179.672 37.8281C177.859 37.8281 176.297 38.5 174.984 39.8438C173.703 41.1562 173.062 42.75 173.062 44.625C173.062 46.4375 173.734 48 175.078 49.3125C176.422 50.5938 178.031 51.2344 179.906 51.2344C184.406 51.2344 186.656 48.125 186.656 41.9062V3.60938ZM231 3.60938V67.5938H213.469V3.60938H231ZM287.25 47.0625H260.672C260.266 45.7188 260.062 44.4844 260.062 43.3594C260.062 41.7969 260.344 40.2656 260.906 38.7656H269.812C269.188 35.2969 267.234 33.5625 263.953 33.5625C261.766 33.5625 259.984 34.5 258.609 36.375C257.234 38.2188 256.547 40.5938 256.547 43.5C256.547 46.5312 257.203 48.9844 258.516 50.8594C259.859 52.7344 261.609 53.6719 263.766 53.6719C265.516 53.6719 267.203 52.7969 268.828 51.0469L278.812 63.0469C274.156 66.7031 268.984 68.5312 263.297 68.5312C256.359 68.5312 250.531 66.2031 245.812 61.5469C241.094 56.8906 238.734 51.125 238.734 44.25C238.734 37.4062 241.109 31.625 245.859 26.9062C250.641 22.1875 256.5 19.8281 263.438 19.8281C270.219 19.8281 275.906 22.1406 280.5 26.7656C285.125 31.3594 287.438 37.0312 287.438 43.7812C287.438 44.4688 287.375 45.5625 287.25 47.0625ZM358.688 67.5938H341.156V42.375C341.156 40.4375 340.953 39.0938 340.547 38.3438C340.141 37.5938 339.406 37.2188 338.344 37.2188C336.375 37.2188 335.391 38.9531 335.391 42.4219V67.5938H317.859V42.375C317.859 40.4375 317.641 39.0938 317.203 38.3438C316.797 37.5938 316.062 37.2188 315 37.2188C313.062 37.2188 312.094 38.9531 312.094 42.4219V67.5938H294.562V38.8125C294.562 33.5625 296.328 29.1094 299.859 25.4531C303.391 21.7656 307.672 19.9219 312.703 19.9219C317.891 19.9219 322.547 22.1094 326.672 26.4844C331.266 22.1094 335.859 19.9219 340.453 19.9219C346.297 19.9219 350.984 22.0469 354.516 26.2969C357.297 29.6094 358.688 34.4375 358.688 40.7812V67.5938ZM394.969 50.0625V68.2031C393.531 68.4531 392.219 68.5781 391.031 68.5781C384 68.5781 378.141 66.2656 373.453 61.6406C368.766 57.0156 366.422 51.2188 366.422 44.25C366.422 37.4688 368.781 31.7188 373.5 27C378.25 22.2812 384.016 19.9219 390.797 19.9219C398.359 19.9219 404.312 22.1406 408.656 26.5781C413.031 30.9844 415.219 37.0156 415.219 44.6719V67.5938H397.688V45.9375C397.688 43.4688 397.078 41.5 395.859 40.0312C394.672 38.5625 393.062 37.8281 391.031 37.8281C389.188 37.8281 387.594 38.5 386.25 39.8438C384.906 41.1875 384.234 42.7812 384.234 44.625C384.234 46.5625 384.844 48.1562 386.062 49.4062C387.281 50.6562 388.828 51.2812 390.703 51.2812C392.234 51.2812 393.656 50.875 394.969 50.0625ZM467.109 67.5938H449.578V41.2031C449.578 38.5156 448.469 37.1719 446.25 37.1719C444.062 37.1719 442.969 38.5156 442.969 41.2031V67.5938H425.438V41.5312C425.438 35.4375 427.453 30.3125 431.484 26.1562C435.516 21.9688 440.453 19.875 446.297 19.875C452.984 19.875 458.344 22.2969 462.375 27.1406C465.531 30.9219 467.109 36.1875 467.109 42.9375V67.5938Z" fill="white"/>
</svg>
